HIERARCHY
ROOT Hips
{
 OFFSET 0.000000 0.000000 0.000000
 CHANNELS 6 Xposition Yposition Zposition Yrotation Xrotation Zrotation
 JOINT Chest
 {
  OFFSET 0.000000 9.585900 0.002600
  CHANNELS 3 Yrotation Xrotation Zrotation
  JOINT Chest2
  {
   OFFSET 0.000000 9.601200 -0.005300
   CHANNELS 3 Yrotation Xrotation Zrotation
   JOINT Chest3
   {
    OFFSET 0.000000 9.561800 0.000000
    CHANNELS 3 Yrotation Xrotation Zrotation
    JOINT Chest4
    {
     OFFSET 0.000000 9.552100 0.000000
     CHANNELS 3 Yrotation Xrotation Zrotation
     JOINT Neck
     {
      OFFSET 0.000000 14.453000 0.000000
      CHANNELS 3 Yrotation Xrotation Zrotation
      JOINT Head
      {
       OFFSET 0.000000 8.936500 -0.011300
       CHANNELS 3 Yrotation Xrotation Zrotation
       End Site
       {
        OFFSET 0.000000 17.073600 -0.006000
       }
      }
     }
     JOINT RightCollar
     {
      OFFSET -2.921100 9.558500 0.000000
      CHANNELS 3 Yrotation Xrotation Zrotation
      JOINT RightShoulder
      {
       OFFSET -13.519700 0.000000 0.000000
       CHANNELS 3 Yrotation Xrotation Zrotation
       JOINT RightElbow
       {
        OFFSET 0.000000 -29.696600 0.000000
        CHANNELS 3 Yrotation Xrotation Zrotation
        JOINT RightWrist
        {
         OFFSET 0.000000 -24.004700 0.000000
         CHANNELS 3 Yrotation Xrotation Zrotation
         End Site
         {
          OFFSET 0.000000 -17.728500 0.000000
         }
        }
       }
      }
     }
     JOINT LeftCollar
     {
      OFFSET 2.921100 9.558500 0.000000
      CHANNELS 3 Yrotation Xrotation Zrotation
      JOINT LeftShoulder
      {
       OFFSET 13.519700 0.000000 0.000000
       CHANNELS 3 Yrotation Xrotation Zrotation
       JOINT LeftElbow
       {
        OFFSET 0.000000 -29.696600 0.000000
        CHANNELS 3 Yrotation Xrotation Zrotation
        JOINT LeftWrist
        {
         OFFSET 0.000000 -24.004700 0.000000
         CHANNELS 3 Yrotation Xrotation Zrotation
         End Site
         {
          OFFSET 0.000000 -17.728500 0.000000
         }
        }
       }
      }
     }
    }
   }
  }
 }
 JOINT RightHip
 {
  OFFSET -7.771700 -0.012900 -0.001300
  CHANNELS 3 Yrotation Xrotation Zrotation
  JOINT RightKnee
  {
   OFFSET 0.000000 -40.869800 0.001200
   CHANNELS 3 Yrotation Xrotation Zrotation
   JOINT RightAnkle
   {
    OFFSET 0.000000 -39.717900 0.002100
    CHANNELS 3 Yrotation Xrotation Zrotation
    JOINT RightToe
    {
     OFFSET 0.000000 -4.965400 11.033500
     CHANNELS 3 Yrotation Xrotation Zrotation
     End Site
     {
      OFFSET 0.000000 -1.423100 5.872300
     }
    }
   }
  }
 }
 JOINT LeftHip
 {
  OFFSET 7.771700 -0.012900 -0.001300
  CHANNELS 3 Yrotation Xrotation Zrotation
  JOINT LeftKnee
  {
   OFFSET 0.000000 -40.869800 0.001200
   CHANNELS 3 Yrotation Xrotation Zrotation
   JOINT LeftAnkle
   {
    OFFSET 0.000000 -39.717900 0.002100
    CHANNELS 3 Yrotation Xrotation Zrotation
    JOINT LeftToe
    {
     OFFSET 0.000000 -4.965400 11.033500
     CHANNELS 3 Yrotation Xrotation Zrotation
     End Site
     {
      OFFSET 0.000000 -1.423100 5.872300
     }
    }
   }
  }
 }
}
MOTION
Frames: 15
Frame Time: 0.008333
0.000000 85.388000 0.000000 0.000000 -5.767877 0.000000 0.000000 11.653817 0.000000 0.000000 -5.885947 0.000000 0.000000 -0.000000 0.000000 0.000000 -0.000000 0.000000 0.000000 12.528835 0.000000 0.000000 0.711642 0.000000 0.000000 -0.000000 0.000000 0.000000 0.000000 -90.000000 0.000000 -2.309062 0.000000 0.000000 2.309062 0.000000 0.000000 -0.000000 0.000000 0.000000 -0.000000 90.000000 0.000000 -2.309062 0.000000 0.000000 2.309062 0.000000 0.000000 8.520406 0.000000 0.000000 1.905762 0.000000 -0.000000 -4.658285 0.000000 0.000000 -0.000000 0.000000 0.000000 8.520406 0.000000 0.000000 1.905762 0.000000 -0.000000 -4.658285 0.000000 0.000000 -0.000000 0.000000
-3.456151 55.272404 -23.001039 179.383632 -16.248147 -1.284998 0.863744 15.718801 0.616832 0.069744 1.505512 0.064531 0.135171 2.541857 0.094545 0.779198 13.972091 0.634641 0.696907 13.937134 -3.283679 1.491324 -11.032741 -3.630495 -0.165587 -0.353583 2.342494 3.705297 -3.909462 -8.542016 -74.049353 -65.635429 105.040033 -16.702979 -16.758017 2.739173 -5.455331 -1.572587 2.675361 1.989979 -8.269850 7.303983 63.730094 -57.635609 -102.114006 5.908174 -8.788914 3.730228 0.208209 -58.545851 12.333791 -115.527248 88.705471 -119.970658 -11.448905 -22.565505 14.645487 0.000210 -0.032456 0.023583 10.393612 -55.436312 -5.844508 114.472701 77.541038 112.549710 -6.622443 -23.547997 0.468644 0.037490 0.136682 0.016753
-3.455673 55.271725 -23.001094 179.382848 -16.250262 -1.286809 0.869985 15.724903 0.615895 0.071755 1.506523 0.063764 0.137559 2.545762 0.092710 0.784588 13.978275 0.631812 0.694858 13.936600 -3.263885 1.488716 -11.030036 -3.613499 -0.177079 -0.369725 2.354496 3.715974 -3.917195 -8.560494 -74.035672 -65.624991 105.034364 -16.696720 -16.755983 2.758047 -5.465289 -1.594953 2.685645 1.987996 -8.265293 7.309682 63.737955 -57.639525 -102.128404 5.903865 -8.794395 3.711392 0.208840 -58.545421 12.331893 -115.677328 88.712416 -120.123038 -11.357489 -22.570342 14.614876 -0.011074 -0.042622 0.026017 10.395344 -55.435456 -5.840255 114.479685 77.537383 112.556800 -6.628625 -23.550672 0.472564 0.039395 0.137829 0.016069
-3.455440 55.270962 -23.001033 179.380767 -16.252641 -1.287442 0.873999 15.728761 0.616062 0.076911 1.512693 0.058684 0.143649 2.548343 0.091153 0.792189 13.986049 0.629095 0.688929 13.934502 -3.241775 1.483371 -11.030347 -3.591268 -0.188734 -0.394853 2.364481 3.718164 -3.917893 -8.566477 -74.027942 -65.616927 105.027667 -16.700627 -16.758905 2.772639 -5.481791 -1.621173 2.704161 1.985807 -8.262739 7.312051 63.755475 -57.638614 -102.157962 5.907044 -8.785582 3.724696 0.220273 -58.546710 12.326682 -115.746997 88.713638 -120.186636 -11.305167 -22.571571 14.583626 0.016015 -0.040592 0.028122 10.405803 -55.433500 -5.842008 114.486788 77.538551 112.566468 -6.631192 -23.553840 0.477869 0.039386 0.139651 0.015088
-3.456436 55.270330 -23.001294 179.392446 -16.257741 -1.285466 0.873092 15.737310 0.607024 0.091811 1.525108 0.049803 0.133402 2.545319 0.098533 0.802141 13.994596 0.626480 0.682629 13.929793 -3.218750 1.478015 -11.016104 -3.539292 -0.201164 -0.428173 2.364450 3.706938 -3.910404 -8.553059 -74.021409 -65.618128 105.030884 -16.705604 -16.767834 2.784829 -5.501232 -1.662890 2.719003 1.993234 -8.260296 7.327674 63.755855 -57.624249 -102.188933 5.909729 -8.780604 3.720873 0.229019 -58.543724 12.309574 -116.036309 88.714344 -120.472454 -11.264492 -22.576460 14.551638 0.009017 -0.042505 0.038153 10.410685 -55.427561 -5.854173 114.482340 77.544724 112.558027 -6.623942 -23.550628 0.490224 0.031929 0.140565 0.010626
-3.457514 55.269465 -23.000459 179.394857 -16.257370 -1.281490 0.883927 15.744486 0.597227 0.090279 1.527344 0.051699 0.135441 2.548816 0.097786 0.812496 14.002989 0.623184 0.679748 13.927472 -3.197251 1.463673 -11.027660 -3.524736 -0.217442 -0.459436 2.366869 3.704142 -3.901004 -8.546782 -74.032519 -65.620725 105.056573 -16.709658 -16.783511 2.784796 -5.520445 -1.696061 2.738838 1.992760 -8.254593 7.334392 63.758681 -57.616161 -102.202694 5.903928 -8.810435 3.682767 0.236780 -58.546724 12.306531 -115.946650 88.706291 -120.375284 -11.285340 -22.576106 14.536220 0.003103 -0.036895 0.046156 10.419141 -55.427525 -5.864881 114.474234 77.546211 112.548041 -6.622120 -23.549792 0.496873 0.028719 0.142172 0.008310
-3.458635 55.268604 -22.999175 179.397452 -16.255251 -1.278282 0.891426 15.751681 0.589984 0.089468 1.526310 0.051474 0.137414 2.552430 0.097273 0.822459 14.011438 0.620870 0.683581 13.946933 -3.162865 1.445059 -11.058958 -3.523753 -0.232294 -0.487539 2.366919 3.698887 -3.896967 -8.535808 -74.049149 -65.623675 105.077845 -16.710530 -16.788697 2.790313 -5.533119 -1.731817 2.758247 1.986845 -8.240740 7.334451 63.764560 -57.614209 -102.216567 5.901666 -8.821348 3.662420 0.244514 -58.550661 12.302353 -115.785030 88.705236 -120.206628 -11.312385 -22.578840 14.528445 0.001155 -0.027990 0.054907 10.424989 -55.430053 -5.874409 114.457597 77.546248 112.530623 -6.622451 -23.547290 0.501312 0.027572 0.143351 0.006820
-3.459909 55.268147 -22.998645 179.399813 -16.258610 -1.274799 0.897590 15.759345 0.583194 0.089010 1.530977 0.049003 0.139401 2.556329 0.097165 0.828385 14.014081 0.623431 0.680334 13.953001 -3.139360 1.428069 -11.046264 -3.463787 -0.244462 -0.506776 2.368409 3.696502 -3.896446 -8.530596 -74.054177 -65.633993 105.092814 -16.713524 -16.799357 2.792450 -5.538159 -1.766095 2.772703 1.978535 -8.231306 7.337412 63.810140 -57.618203 -102.305636 5.910566 -8.808635 3.694137 0.253039 -58.546794 12.291461 -116.040360 88.713573 -120.463448 -11.312231 -22.588329 14.521405 -0.000013 -0.020166 0.050854 10.432619 -55.425710 -5.885150 114.436736 77.545175 112.510530 -6.622572 -23.545461 0.506022 0.025486 0.144445 0.004474
-3.459547 55.267936 -22.998187 179.395844 -16.263171 -1.279855 0.916760 15.776844 0.578604 0.085812 1.528381 0.055208 0.138413 2.556782 0.099179 0.826984 14.008335 0.628989 0.682766 13.971177 -3.121439 1.412291 -11.043034 -3.419665 -0.248492 -0.515505 2.363864 3.695893 -3.894226 -8.526154 -74.068045 -65.645013 105.118856 -16.715723 -16.812376 2.788103 -5.538703 -1.781540 2.777845 1.970862 -8.234432 7.342863 63.825259 -57.615538 -102.340063 5.911076 -8.809483 3.690545 0.248348 -58.540764 12.300391 -116.053971 88.721399 -120.481750 -11.292484 -22.594958 14.513825 -0.053235 -0.021647 0.041026 10.430170 -55.423017 -5.875008 114.436544 77.545210 112.511216 -6.620983 -23.547230 0.508505 0.023465 0.145651 0.003806
-3.459190 55.267964 -22.997759 179.396340 -16.267866 -1.286549 0.920728 15.783719 0.583880 0.090985 1.534208 0.051260 0.134072 2.552620 0.103200 0.841854 14.030750 0.621369 0.672553 13.956586 -3.099431 1.405044 -11.043600 -3.402534 -0.257158 -0.568499 2.336211 3.684793 -3.869956 -8.485195 -74.085673 -65.654567 105.147051 -16.720747 -16.820567 2.778787 -5.554134 -1.817074 2.796951 1.965717 -8.239998 7.344352 63.838825 -57.616128 -102.371592 5.907994 -8.811534 3.679035 0.237451 -58.534689 12.312152 -116.096573 88.729353 -120.526733 -11.291844 -22.595848 14.511352 -0.005306 -0.020510 0.032539 10.421202 -55.419873 -5.862346 114.441273 77.546122 112.516750 -6.620659 -23.550931 0.508305 0.023701 0.147943 0.005691
-3.459223 55.268209 -22.997387 179.396416 -16.272470 -1.291246 0.931813 15.796331 0.583928 0.084391 1.528610 0.056818 0.142544 2.563818 0.096667 0.848876 14.038991 0.618764 0.663458 13.945952 -3.075875 1.397571 -11.043301 -3.384756 -0.270930 -0.597610 2.341477 3.682583 -3.863451 -8.475372 -74.116699 -65.673042 105.182898 -16.735477 -16.824450 2.772414 -5.572276 -1.884906 2.828187 1.958356 -8.210898 7.338479 63.852094 -57.611214 -102.389467 5.900227 -8.812302 3.670814 0.230120 -58.529476 12.325027 -115.948547 88.729783 -120.374739 -11.329321 -22.591780 14.514398 -0.034219 -0.022157 0.026773 10.414787 -55.416694 -5.851768 114.440251 77.544179 112.518113 -6.628722 -23.552918 0.506360 0.027696 0.149138 0.008295
-3.459595 55.268775 -22.997406 179.391570 -16.278717 -1.293123 0.948018 15.813232 0.585008 0.085748 1.531228 0.056621 0.144538 2.568268 0.096126 0.859266 14.049206 0.617064 0.651300 13.945142 -3.043664 1.377150 -11.045142 -3.347330 -0.291805 -0.631780 2.344543 3.681650 -3.858884 -8.464696 -74.148334 -65.693405 105.221058 -16.725728 -16.844709 2.786635 -5.596347 -1.935037 2.852679 1.954036 -8.210097 7.336825 63.868709 -57.610687 -102.416071 5.895191 -8.809733 3.671399 0.232138 -58.523769 12.335230 -115.771902 88.731891 -120.189015 -11.387860 -22.584553 14.518297 0.005478 -0.015666 0.033424 10.417375 -55.407097 -5.843292 114.423931 77.545228 112.506779 -6.641911 -23.558996 0.503555 0.035219 0.153416 0.013143
-3.459160 55.269244 -22.996370 179.385205 -16.277189 -1.300212 0.963930 15.825161 0.585791 0.087402 1.533612 0.056271 0.147339 2.572019 0.095756 0.885172 14.074733 0.609992 0.628831 13.925755 -2.997573 1.335148 -11.025923 -3.247917 -0.324924 -0.702931 2.332110 3.680967 -3.845587 -8.441052 -74.189623 -65.693977 105.262413 -16.740945 -16.836263 2.779204 -5.633362 -2.003620 2.891061 1.963054 -8.207240 7.336437 63.883352 -57.616075 -102.458964 5.893220 -8.804845 3.678856 0.230544 -58.526849 12.349042 -115.714676 88.739229 -120.123996 -11.417270 -22.575333 14.513825 0.004253 -0.019275 0.032816 10.413224 -55.409418 -5.829582 114.420812 77.548345 112.504608 -6.634591 -23.562702 0.502125 0.035173 0.156181 0.013305
-3.459097 55.270055 -22.996144 179.384786 -16.278800 -1.307421 0.989957 15.854743 0.584308 0.089858 1.539872 0.056129 0.137844 2.559225 0.102564 0.884985 14.069274 0.614360 0.623351 13.940964 -2.965305 1.302259 -11.013882 -3.175528 -0.335764 -0.723375 2.334805 3.681440 -3.843270 -8.438975 -74.238258 -65.726681 105.314604 -16.735562 -16.852630 2.779116 -5.646882 -2.032982 2.904257 1.965367 -8.210088 7.339503 63.900351 -57.625132 -102.497474 5.901260 -8.798745 3.695359 0.225671 -58.526220 12.351564 -115.869800 88.742241 -120.280533 -11.373457 -22.572418 14.491850 0.006757 -0.028534 0.030426 10.406173 -55.409117 -5.819148 114.430784 77.554635 112.516863 -6.628980 -23.564340 0.508318 0.034786 0.155305 0.009654
-3.459610 55.271059 -22.996452 179.385060 -16.281646 -1.311797 1.002361 15.871183 0.585725 0.091182 1.542946 0.056256 0.140027 2.565620 0.101440 0.918991 14.115358 0.611142 0.588415 13.907981 -2.912922 1.272891 -11.002488 -3.121551 -0.383308 -0.807250 2.334763 3.684698 -3.831217 -8.420080 -74.351544 -65.828768 105.419039 -16.706638 -16.911934 2.784189 -5.694380 -2.115097 2.937413 1.968435 -8.237305 7.346497 63.872088 -57.615660 -102.485537 5.903465 -8.797524 3.707062 0.221050 -58.521660 12.357800 -115.714417 88.739839 -120.124234 -11.371170 -22.576726 14.487746 0.006078 -0.024989 0.028584 10.400548 -55.406489 -5.813461 114.436829 77.559639 112.524743 -6.621516 -23.565259 0.509839 0.034716 0.155350 0.007397
